<svg xmlns="http://www.w3.org/2000/svg" viewBox="0 0 64 64" width="64" height="64" role="img" aria-label="Kits for Family Times">
  <!-- Background circle -->
  <circle cx="32" cy="32" r="32" fill="#2D6A4F"/>

  <!-- Kit box body -->
  <rect x="14" y="28" width="36" height="22" rx="3" fill="#FEFAE0"/>

  <!-- Kit box lid -->
  <rect x="12" y="22" width="40" height="8" rx="3" fill="#F4A261"/>

  <!-- Ribbon vertical -->
  <rect x="30" y="22" width="4" height="28" fill="#E07038"/>

  <!-- Ribbon horizontal on lid -->
  <rect x="12" y="25" width="40" height="4" fill="#E07038"/>

  <!-- Bow left -->
  <ellipse cx="26" cy="22" rx="7" ry="4" fill="#F4A261" transform="rotate(-20 26 22)"/>
  <!-- Bow right -->
  <ellipse cx="38" cy="22" rx="7" ry="4" fill="#F4A261" transform="rotate(20 38 22)"/>
  <!-- Bow center -->
  <circle cx="32" cy="22" r="3.5" fill="#E07038"/>

  <!-- Heart inside box -->
  <path d="M32 44 C32 44 24 38 24 33.5 C24 30.5 26.5 28.5 32 33 C37.5 28.5 40 30.5 40 33.5 C40 38 32 44 32 44Z"
        fill="#40916C" opacity="0.7"/>
</svg>
